<?xml version="1.0" encoding="utf-8"?>
<!-- Generator: Adobe Illustrator 26.3.1, SVG Export Plug-In . SVG Version: 6.00 Build 0)  -->
<svg version="1.1" id="Layer_1" xmlns="http://www.w3.org/2000/svg" xmlns:xlink="http://www.w3.org/1999/xlink" x="0px" y="0px"
	 viewBox="0 0 8 6" style="enable-background:new 0 0 8 6;" xml:space="preserve">
<style type="text/css">
	.st0{fill:#494B67;}
</style>
<path class="st0" d="M3.7,5.8c0,0.1,0.1,0.1,0.1,0.1C3.9,6,3.9,6,4,6c0.1,0,0.1,0,0.2,0c0.1,0,0.1-0.1,0.1-0.1l3.6-5.2
	C8,0.6,8,0.5,8,0.4c0-0.1,0-0.1,0-0.2c0-0.1-0.1-0.1-0.1-0.2C7.7,0,7.7,0,7.6,0H0.4C0.3,0,0.3,0,0.2,0.1C0.1,0.1,0.1,0.2,0,0.2
	s0,0.1,0,0.2c0,0.1,0,0.1,0.1,0.2L3.7,5.8z"/>
</svg>
