<?xml version="1.0" encoding="utf-8"?>
<!-- Generator: Adobe Illustrator 26.3.1, SVG Export Plug-In . SVG Version: 6.00 Build 0)  -->
<svg version="1.1" id="Layer_1" xmlns="http://www.w3.org/2000/svg" xmlns:xlink="http://www.w3.org/1999/xlink" x="0px" y="0px"
	 viewBox="0 0 281 59" style="enable-background:new 0 0 281 59;" xml:space="preserve">
<style type="text/css">
	.st0{fill-rule:evenodd;clip-rule:evenodd;fill:#FFFFFF;}
	.st1{fill:#FFFFFF;}
</style>
<path class="st0" d="M33.8,0.6c-1.1,0-2,0.9-2,1.9c0,1.1,0.9,1.9,2,1.9c1.1,0,2-0.9,2-1.9C35.8,1.4,34.9,0.6,33.8,0.6z M33.8,6.2
	c-1.1,0-2,0.9-2,1.9c0,1.1,0.9,1.9,2,1.9c1.1,0,2-0.9,2-1.9C35.8,7,34.9,6.2,33.8,6.2z M33.8,11.7c-1.1,0-2,0.9-2,1.9
	c0,1.1,0.9,1.9,2,1.9c1.1,0,2-0.9,2-1.9C35.8,12.5,34.9,11.7,33.8,11.7z M33.8,43.9c-1.1,0-2,0.9-2,1.9c0,1.1,0.9,1.9,2,1.9
	c1.1,0,2-0.9,2-1.9C35.8,44.8,34.9,43.9,33.8,43.9z M33.8,49.5c-1.1,0-2,0.9-2,1.9c0,1.1,0.9,1.9,2,1.9c1.1,0,2-0.9,2-1.9
	C35.8,50.4,34.9,49.5,33.8,49.5z M33.8,55c-1.1,0-2,0.9-2,1.9c0,1.1,0.9,1.9,2,1.9c1.1,0,2-0.9,2-1.9C35.8,55.9,34.9,55,33.8,55z
	 M40.5,6.1c0-1.1-0.9-1.9-2-1.9c-1.1,0-2,0.9-2,1.9c0,1.1,0.9,1.9,2,1.9C39.7,8,40.5,7.2,40.5,6.1z M39.3,9.8c-1.1,0-2,0.9-2,1.9
	c0,1.1,0.9,1.9,2,1.9c1.1,0,2-0.9,2-1.9C41.3,10.7,40.4,9.8,39.3,9.8z M39.3,15.2c-1.1,0-2,0.9-2,1.9c0,1.1,0.9,1.9,2,1.9
	c1.1,0,2-0.9,2-1.9C41.3,16.1,40.4,15.2,39.3,15.2z M44.7,24.3c1.1,0,2-0.9,2-1.9c0-1.1-0.9-1.9-2-1.9c-1.1,0-2,0.9-2,1.9
	C42.8,23.5,43.7,24.3,44.7,24.3z M45.9,25.7c-1.1,0-2,0.9-2,1.9c0,1.1,0.9,1.9,2,1.9c1.1,0,2-0.9,2-1.9C47.8,26.5,47,25.7,45.9,25.7
	z M45.9,30.8c-1.1,0-2,0.9-2,1.9s0.9,1.9,2,1.9c1.1,0,2-0.9,2-1.9S47,30.8,45.9,30.8z M45.9,37.6c0-1.1-0.9-1.9-2-1.9
	c-1.1,0-2,0.9-2,1.9c0,1.1,0.9,1.9,2,1.9C45,39.5,45.9,38.6,45.9,37.6z M39.3,39.5c-1.1,0-2,0.9-2,1.9c0,1.1,0.9,1.9,2,1.9
	c1.1,0,2-0.9,2-1.9C41.3,40.3,40.4,39.5,39.3,39.5z M51.5,21.6c0-1.1-0.9-1.9-2-1.9c-1.1,0-2,0.9-2,1.9c0,1.1,0.9,1.9,2,1.9
	C50.7,23.5,51.5,22.7,51.5,21.6z M56.2,23.5c1.1,0,2-0.9,2-1.9c0-1.1-0.9-1.9-2-1.9c-1.1,0-2,0.9-2,1.9
	C54.3,22.7,55.1,23.5,56.2,23.5z M45.9,41.4c-1.1,0-2,0.9-2,1.9c0,1.1,0.9,1.9,2,1.9c1.1,0,2-0.9,2-1.9C47.8,42.2,47,41.4,45.9,41.4
	z M39.3,50.4c-1.1,0-2,0.9-2,1.9c0,1.1,0.9,1.9,2,1.9c1.1,0,2-0.9,2-1.9C41.3,51.3,40.4,50.4,39.3,50.4z M39.3,44.7
	c-1.1,0-2,0.9-2,1.9c0,1.1,0.9,1.9,2,1.9c1.1,0,2-0.9,2-1.9C41.3,45.5,40.4,44.7,39.3,44.7z M64.8,19.7c-1.1,0-2,0.9-2,1.9
	c0,1.1,0.9,1.9,2,1.9c1.1,0,2-0.9,2-1.9C66.7,20.6,65.8,19.7,64.8,19.7z M44.7,46.6c-1.1,0-2,0.9-2,1.9c0,1.1,0.9,1.9,2,1.9
	c1.1,0,2-0.9,2-1.9C46.7,47.4,45.8,46.6,44.7,46.6z M53.5,37.6c0-1.1-0.9-1.9-2-1.9c-1.1,0-2,0.9-2,1.9c0,1.1,0.9,1.9,2,1.9
	C52.6,39.5,53.5,38.6,53.5,37.6z M51.5,27.6c-1.1,0-2,0.9-2,1.9c0,1.1,0.9,1.9,2,1.9c1.1,0,2-0.9,2-1.9
	C53.5,28.4,52.6,27.6,51.5,27.6z M44.7,8.1c1.1,0,2-0.9,2-1.9c0-1.1-0.9-1.9-2-1.9c-1.1,0-2,0.9-2,1.9C42.8,7.2,43.7,8.1,44.7,8.1z
	 M51.5,8.1c1.1,0,2-0.9,2-1.9c0-1.1-0.9-1.9-2-1.9c-1.1,0-2,0.9-2,1.9C49.6,7.2,50.5,8.1,51.5,8.1z M63.1,8.1c1.1,0,2-0.9,2-1.9
	c0-1.1-0.9-1.9-2-1.9c-1.1,0-2,0.9-2,1.9C61.1,7.2,62,8.1,63.1,8.1z M60.1,30c-1.1,0-2,0.9-2,1.9c0,1.1,0.9,1.9,2,1.9s2-0.8,2-1.9
	C62.1,30.8,61.2,30,60.1,30z M43.9,11.1c0,1.1,0.9,1.9,2,1.9c1.1,0,2-0.9,2-1.9c0-1.1-0.9-1.9-2-1.9C44.8,9.2,43.9,10,43.9,11.1z
	 M56.2,13c1.1,0,2-0.9,2-1.9c0-1.1-0.9-1.9-2-1.9c-1.1,0-2,0.9-2,1.9C54.3,12.2,55.1,13,56.2,13z M44.7,18.2c1.1,0,2-0.9,2-1.9
	c0-1.1-0.9-1.9-2-1.9c-1.1,0-2,0.9-2,1.9C42.8,17.4,43.7,18.2,44.7,18.2z M51.5,18.2c1.1,0,2-0.9,2-1.9c0-1.1-0.9-1.9-2-1.9
	c-1.1,0-2,0.9-2,1.9C49.6,17.4,50.5,18.2,51.5,18.2z M62.8,18.2c1.1,0,2-0.9,2-1.9c0-1.1-0.9-1.9-2-1.9c-1.1,0-2,0.9-2,1.9
	C60.8,17.4,61.7,18.2,62.8,18.2z M53.5,46.6c-1.1,0-2,0.9-2,1.9c0,1.1,0.9,1.9,2,1.9c1.1,0,2-0.9,2-1.9
	C55.4,47.4,54.6,46.6,53.5,46.6z M56.2,41.4c-1.1,0-2,0.9-2,1.9c0,1.1,0.9,1.9,2,1.9c1.1,0,2-0.9,2-1.9
	C58.2,42.2,57.3,41.4,56.2,41.4z M0,29.5c0,16.2,13.5,29.4,30.1,29.4c0.2,0,0.5,0,0.7,0V43.7c-0.2,0-0.5,0-0.7,0
	c-8.1,0-14.6-6.4-14.6-14.2S22,15.3,30.1,15.3c0.2,0,0.5,0,0.7,0V0.2c-0.2,0-0.5,0-0.7,0C13.5,0.1,0,13.3,0,29.5z"/>
<path class="st0" d="M99.8,11.6v28.6h13.6v7.2H90.1V11.6H99.8z"/>
<path class="st0" d="M167.5,11.6v7.2h-10.5v28.6h-10.3V18.8h-10.9v-7.2H167.5z"/>
<path class="st0" d="M199.7,18.8h-15.5v7.1h11.5v7.2h-11.5v7h15.5v7.2h-25.3V11.6h25.3V18.8z"/>
<path class="st1" d="M127.9,32.6h-5.5c-1.7,0-3.1-1.4-3.1-3.1v0c0-1.7,1.4-3.1,3.1-3.1h5.5c1.7,0,3.1,1.4,3.1,3.1v0
	C131,31.2,129.6,32.6,127.9,32.6z"/>
<path class="st0" d="M271.2,11.6h9.8v35.8h-9.8V33.6h-12.5v13.8h-9.8V11.6h9.8v14.7h12.5V11.6z"/>
<path class="st0" d="M243,23.2c-2.7-7.3-9.8-12.5-18.2-12.5c-10.7,0-19.3,8.4-19.3,18.9s8.6,18.9,19.3,18.9
	c7.9,0,14.6-4.6,17.6-11.2l-7.8-2.5c-1.8,3.4-5.5,5.8-9.7,5.8c-6.1,0-11-4.8-11-10.7S218.9,19,225,19c4.6,0,8.5,2.7,10.1,6.6
	L243,23.2z"/>
</svg>
