<?xml version="1.0" encoding="utf-8"?>
<!-- Generator: Adobe Illustrator 26.3.1, SVG Export Plug-In . SVG Version: 6.00 Build 0)  -->
<svg version="1.1" id="Layer_1" xmlns="http://www.w3.org/2000/svg" xmlns:xlink="http://www.w3.org/1999/xlink" x="0px" y="0px"
	 viewBox="0 0 22 22" style="enable-background:new 0 0 22 22;" xml:space="preserve">
<style type="text/css">
	.st0{fill-rule:evenodd;clip-rule:evenodd;fill:#282828;}
	.st1{fill:none;stroke:#282828;stroke-width:1.5;stroke-linecap:round;stroke-linejoin:round;}
</style>
<path class="st0" d="M0.7,11.9c0.4,0,0.8-0.4,0.8-0.8c0,0,0-0.1,0-0.1c0-3.4,0.9-5.7,2.3-7.2C5.3,2.4,7.6,1.5,11,1.5
	c3.4,0,5.7,0.9,7.2,2.3c0.7,0.7,1.3,1.7,1.7,3c0.1,0.3,0.4,0.6,0.8,0.6c0.5,0,0.9-0.5,0.7-0.9C20.1,2.1,16.6,0,11,0
	C3.7,0,0,3.7,0,11c0,0.1,0,0.1,0,0.2C0,11.6,0.3,11.9,0.7,11.9z M2.1,15.2c-0.1-0.3-0.4-0.6-0.8-0.6c-0.5,0-0.9,0.5-0.7,0.9
	C1.9,19.9,5.4,22,11,22c7.3,0,11-3.7,11-11c0-0.1,0-0.1,0-0.2c0-0.4-0.3-0.7-0.7-0.7c-0.4,0-0.8,0.4-0.8,0.8c0,0,0,0.1,0,0.1
	c0,3.4-0.9,5.7-2.3,7.2c-1.5,1.5-3.8,2.3-7.2,2.3c-3.4,0-5.7-0.9-7.2-2.3C3.1,17.4,2.5,16.5,2.1,15.2z"/>
<path class="st1" d="M21,0.9v5.5h-5.7"/>
<path class="st1" d="M1,21.1l0-5.5h5.7"/>
</svg>
