<?xml version="1.0" encoding="utf-8"?>
<!-- Generator: Adobe Illustrator 26.3.1, SVG Export Plug-In . SVG Version: 6.00 Build 0)  -->
<svg version="1.1" id="Layer_1" xmlns="http://www.w3.org/2000/svg" xmlns:xlink="http://www.w3.org/1999/xlink" x="0px" y="0px"
	 viewBox="0 0 24 24" style="enable-background:new 0 0 24 24;" xml:space="preserve">
<style type="text/css">
	.st0{fill:#222121;}
</style>
<path class="st0" d="M21.2,5.6c0,1.5-1.2,2.8-2.8,2.8v1.5c2.3,0,4.2-1.9,4.2-4.2H21.2z M15.7,5.6c0-1.5,1.2-2.8,2.8-2.8V1.3
	c-2.3,0-4.3,1.9-4.3,4.2H15.7z M18.5,2.8c1.5,0,2.8,1.2,2.8,2.8h1.5c0-2.3-1.9-4.2-4.2-4.2V2.8z M21.2,18.6c0,1.5-1.2,2.8-2.8,2.8
	v1.5c2.3,0,4.2-1.9,4.2-4.2H21.2z M18.5,21.3c-1.5,0-2.8-1.2-2.8-2.8h-1.5c0,2.3,1.9,4.2,4.3,4.2V21.3z M18.5,15.8
	c1.5,0,2.8,1.2,2.8,2.7h1.5c0-2.3-1.9-4.2-4.2-4.2V15.8z M5.5,14.8c-1.5,0-2.8-1.2-2.8-2.8H1.2c0,2.3,1.9,4.2,4.2,4.2V14.8z
	 M2.7,12.1c0-1.5,1.2-2.8,2.8-2.8V7.8c-2.3,0-4.2,1.9-4.2,4.2H2.7z M5.5,9.3c1.1,0,2,0.6,2.5,1.5l1.3-0.7C8.6,8.8,7.1,7.8,5.5,7.8
	V9.3z M7.9,10.8c0.2,0.4,0.3,0.8,0.3,1.2h1.5c0-0.7-0.2-1.3-0.4-1.9L7.9,10.8z M8.2,12.1c0,0.4-0.1,0.9-0.3,1.2L9.3,14
	c0.3-0.6,0.4-1.2,0.4-1.9H8.2z M7.9,13.3c-0.5,0.9-1.4,1.5-2.5,1.5v1.5c1.7,0,3.1-1,3.8-2.3L7.9,13.3z M9,11.2l6.7-3.4L15,6.5
	L8.3,9.8L9,11.2z M18.5,8.3c-1.1,0-2-0.6-2.5-1.5l-1.3,0.7c0.7,1.4,2.1,2.3,3.8,2.3V8.3z M16,6.8c-0.2-0.4-0.3-0.8-0.3-1.2h-1.5
	c0,0.7,0.2,1.3,0.4,1.9L16,6.8z M15.7,16.3L9,13l-0.7,1.3l6.7,3.4L15.7,16.3z M15.7,18.6c0-0.4,0.1-0.9,0.3-1.2l-1.3-0.7
	c-0.3,0.6-0.4,1.2-0.4,1.9H15.7z M16,17.3c0.5-0.9,1.4-1.5,2.5-1.5v-1.5c-1.7,0-3.1,1-3.8,2.3L16,17.3z"/>
</svg>
